<mxfile host="app.diagrams.net" modified="2024-04-20T16:25:57.964Z" agent="Mozilla/5.0 (Windows NT 10.0; Win64; x64) AppleWebKit/537.36 (KHTML, like Gecko) Chrome/124.0.0.0 Safari/537.36" etag="C-6fJgvYMVKxUrcMmExo" version="24.2.5" type="github">
  <diagram id="6a731a19-8d31-9384-78a2-239565b7b9f0" name="Page-1">
    <mxGraphModel dx="1221" dy="636" grid="1" gridSize="10" guides="1" tooltips="1" connect="1" arrows="1" fold="1" page="1" pageScale="1" pageWidth="1169" pageHeight="827" background="none" math="0" shadow="0">
      <root>
        <mxCell id="0" />
        <mxCell id="1" parent="0" />
        <mxCell id="qxPoB2lkhQRLCmLDXCdd-62" style="edgeStyle=orthogonalEdgeStyle;rounded=0;orthogonalLoop=1;jettySize=auto;html=1;exitX=0.5;exitY=1;exitDx=0;exitDy=0;exitPerimeter=0;entryX=0.5;entryY=0;entryDx=0;entryDy=0;" edge="1" parent="1" source="qxPoB2lkhQRLCmLDXCdd-58" target="qxPoB2lkhQRLCmLDXCdd-59">
          <mxGeometry relative="1" as="geometry" />
        </mxCell>
        <mxCell id="qxPoB2lkhQRLCmLDXCdd-58" value="开始" style="strokeWidth=2;html=1;shape=mxgraph.flowchart.terminator;whiteSpace=wrap;" vertex="1" parent="1">
          <mxGeometry x="291" y="20" width="75" height="40" as="geometry" />
        </mxCell>
        <mxCell id="qxPoB2lkhQRLCmLDXCdd-63" style="edgeStyle=orthogonalEdgeStyle;rounded=0;orthogonalLoop=1;jettySize=auto;html=1;" edge="1" parent="1" source="qxPoB2lkhQRLCmLDXCdd-59" target="qxPoB2lkhQRLCmLDXCdd-60">
          <mxGeometry relative="1" as="geometry" />
        </mxCell>
        <mxCell id="qxPoB2lkhQRLCmLDXCdd-59" value="点击“新增”按钮" style="rounded=0;whiteSpace=wrap;html=1;" vertex="1" parent="1">
          <mxGeometry x="260" y="80" width="137" height="30" as="geometry" />
        </mxCell>
        <mxCell id="qxPoB2lkhQRLCmLDXCdd-60" value="输入标题" style="shape=parallelogram;html=1;strokeWidth=2;perimeter=parallelogramPerimeter;whiteSpace=wrap;rounded=1;arcSize=12;size=0.23;" vertex="1" parent="1">
          <mxGeometry x="275" y="160" width="107" height="30" as="geometry" />
        </mxCell>
        <mxCell id="qxPoB2lkhQRLCmLDXCdd-65" style="edgeStyle=orthogonalEdgeStyle;rounded=0;orthogonalLoop=1;jettySize=auto;html=1;" edge="1" parent="1">
          <mxGeometry relative="1" as="geometry">
            <mxPoint x="500.5" y="180" as="targetPoint" />
            <mxPoint x="376" y="240" as="sourcePoint" />
            <Array as="points">
              <mxPoint x="501.5" y="240" />
            </Array>
          </mxGeometry>
        </mxCell>
        <mxCell id="qxPoB2lkhQRLCmLDXCdd-75" value="N" style="edgeLabel;html=1;align=center;verticalAlign=middle;resizable=0;points=[];" vertex="1" connectable="0" parent="qxPoB2lkhQRLCmLDXCdd-65">
          <mxGeometry x="0.3045" y="-3" relative="1" as="geometry">
            <mxPoint x="-11" y="-3" as="offset" />
          </mxGeometry>
        </mxCell>
        <mxCell id="qxPoB2lkhQRLCmLDXCdd-74" style="edgeStyle=orthogonalEdgeStyle;rounded=0;orthogonalLoop=1;jettySize=auto;html=1;entryX=0.5;entryY=0;entryDx=0;entryDy=0;" edge="1" parent="1" source="qxPoB2lkhQRLCmLDXCdd-61" target="qxPoB2lkhQRLCmLDXCdd-72">
          <mxGeometry relative="1" as="geometry" />
        </mxCell>
        <mxCell id="qxPoB2lkhQRLCmLDXCdd-76" value="Y" style="edgeLabel;html=1;align=center;verticalAlign=middle;resizable=0;points=[];" vertex="1" connectable="0" parent="qxPoB2lkhQRLCmLDXCdd-74">
          <mxGeometry x="-0.4222" relative="1" as="geometry">
            <mxPoint as="offset" />
          </mxGeometry>
        </mxCell>
        <mxCell id="qxPoB2lkhQRLCmLDXCdd-61" value="标题是否&lt;div&gt;有效？&lt;/div&gt;" style="strokeWidth=2;html=1;shape=mxgraph.flowchart.decision;whiteSpace=wrap;" vertex="1" parent="1">
          <mxGeometry x="273.25" y="220" width="110.5" height="40" as="geometry" />
        </mxCell>
        <mxCell id="qxPoB2lkhQRLCmLDXCdd-64" style="edgeStyle=orthogonalEdgeStyle;rounded=0;orthogonalLoop=1;jettySize=auto;html=1;entryX=0.5;entryY=0;entryDx=0;entryDy=0;entryPerimeter=0;" edge="1" parent="1" source="qxPoB2lkhQRLCmLDXCdd-60" target="qxPoB2lkhQRLCmLDXCdd-61">
          <mxGeometry relative="1" as="geometry" />
        </mxCell>
        <mxCell id="qxPoB2lkhQRLCmLDXCdd-66" value="提示无效原因" style="rounded=0;whiteSpace=wrap;html=1;" vertex="1" parent="1">
          <mxGeometry x="456" y="150" width="90" height="30" as="geometry" />
        </mxCell>
        <mxCell id="qxPoB2lkhQRLCmLDXCdd-68" value="" style="endArrow=classic;html=1;rounded=0;exitX=0.5;exitY=0;exitDx=0;exitDy=0;" edge="1" parent="1" source="qxPoB2lkhQRLCmLDXCdd-66">
          <mxGeometry width="50" height="50" relative="1" as="geometry">
            <mxPoint x="316" y="250" as="sourcePoint" />
            <mxPoint x="326" y="130" as="targetPoint" />
            <Array as="points">
              <mxPoint x="501" y="130" />
            </Array>
          </mxGeometry>
        </mxCell>
        <mxCell id="qxPoB2lkhQRLCmLDXCdd-89" style="edgeStyle=orthogonalEdgeStyle;rounded=0;orthogonalLoop=1;jettySize=auto;html=1;" edge="1" parent="1" source="qxPoB2lkhQRLCmLDXCdd-72" target="qxPoB2lkhQRLCmLDXCdd-73">
          <mxGeometry relative="1" as="geometry" />
        </mxCell>
        <mxCell id="qxPoB2lkhQRLCmLDXCdd-72" value="输入博客内容" style="shape=parallelogram;html=1;strokeWidth=2;perimeter=parallelogramPerimeter;whiteSpace=wrap;rounded=1;arcSize=12;size=0.23;" vertex="1" parent="1">
          <mxGeometry x="275" y="314" width="107" height="30" as="geometry" />
        </mxCell>
        <mxCell id="qxPoB2lkhQRLCmLDXCdd-104" style="edgeStyle=orthogonalEdgeStyle;rounded=0;orthogonalLoop=1;jettySize=auto;html=1;exitX=0.5;exitY=1;exitDx=0;exitDy=0;exitPerimeter=0;entryX=0.5;entryY=0;entryDx=0;entryDy=0;" edge="1" parent="1" source="qxPoB2lkhQRLCmLDXCdd-73" target="qxPoB2lkhQRLCmLDXCdd-90">
          <mxGeometry relative="1" as="geometry" />
        </mxCell>
        <mxCell id="qxPoB2lkhQRLCmLDXCdd-73" value="是否插入图片" style="strokeWidth=2;html=1;shape=mxgraph.flowchart.decision;whiteSpace=wrap;" vertex="1" parent="1">
          <mxGeometry x="273.25" y="374" width="110.5" height="40" as="geometry" />
        </mxCell>
        <mxCell id="qxPoB2lkhQRLCmLDXCdd-78" value="填写图片地址" style="rounded=0;whiteSpace=wrap;html=1;" vertex="1" parent="1">
          <mxGeometry x="456" y="314" width="90" height="30" as="geometry" />
        </mxCell>
        <mxCell id="qxPoB2lkhQRLCmLDXCdd-83" value="" style="endArrow=classic;html=1;rounded=0;entryX=0.5;entryY=1;entryDx=0;entryDy=0;exitX=1;exitY=0.5;exitDx=0;exitDy=0;exitPerimeter=0;" edge="1" parent="1" source="qxPoB2lkhQRLCmLDXCdd-73" target="qxPoB2lkhQRLCmLDXCdd-78">
          <mxGeometry relative="1" as="geometry">
            <mxPoint x="286" y="354" as="sourcePoint" />
            <mxPoint x="386" y="354" as="targetPoint" />
            <Array as="points">
              <mxPoint x="501" y="394" />
            </Array>
          </mxGeometry>
        </mxCell>
        <mxCell id="qxPoB2lkhQRLCmLDXCdd-84" value="Y" style="edgeLabel;resizable=0;html=1;;align=center;verticalAlign=middle;" connectable="0" vertex="1" parent="qxPoB2lkhQRLCmLDXCdd-83">
          <mxGeometry relative="1" as="geometry">
            <mxPoint x="-24" as="offset" />
          </mxGeometry>
        </mxCell>
        <mxCell id="qxPoB2lkhQRLCmLDXCdd-87" value="" style="endArrow=classic;html=1;rounded=0;exitX=0.5;exitY=0;exitDx=0;exitDy=0;" edge="1" parent="1" source="qxPoB2lkhQRLCmLDXCdd-78">
          <mxGeometry relative="1" as="geometry">
            <mxPoint x="286" y="330" as="sourcePoint" />
            <mxPoint x="336" y="280" as="targetPoint" />
            <Array as="points">
              <mxPoint x="501" y="280" />
            </Array>
          </mxGeometry>
        </mxCell>
        <mxCell id="qxPoB2lkhQRLCmLDXCdd-105" style="edgeStyle=orthogonalEdgeStyle;rounded=0;orthogonalLoop=1;jettySize=auto;html=1;entryX=0.5;entryY=0;entryDx=0;entryDy=0;" edge="1" parent="1" source="qxPoB2lkhQRLCmLDXCdd-90" target="qxPoB2lkhQRLCmLDXCdd-93">
          <mxGeometry relative="1" as="geometry" />
        </mxCell>
        <mxCell id="qxPoB2lkhQRLCmLDXCdd-90" value="选择分类" style="rounded=0;whiteSpace=wrap;html=1;" vertex="1" parent="1">
          <mxGeometry x="260" y="430" width="137" height="30" as="geometry" />
        </mxCell>
        <mxCell id="qxPoB2lkhQRLCmLDXCdd-106" style="edgeStyle=orthogonalEdgeStyle;rounded=0;orthogonalLoop=1;jettySize=auto;html=1;entryX=0.5;entryY=0;entryDx=0;entryDy=0;" edge="1" parent="1" source="qxPoB2lkhQRLCmLDXCdd-93" target="qxPoB2lkhQRLCmLDXCdd-94">
          <mxGeometry relative="1" as="geometry" />
        </mxCell>
        <mxCell id="qxPoB2lkhQRLCmLDXCdd-93" value="选择标签" style="rounded=0;whiteSpace=wrap;html=1;" vertex="1" parent="1">
          <mxGeometry x="260" y="480" width="137" height="30" as="geometry" />
        </mxCell>
        <mxCell id="qxPoB2lkhQRLCmLDXCdd-94" value="选择是否开启评论" style="rounded=0;whiteSpace=wrap;html=1;" vertex="1" parent="1">
          <mxGeometry x="260" y="530" width="137" height="30" as="geometry" />
        </mxCell>
        <mxCell id="qxPoB2lkhQRLCmLDXCdd-100" style="edgeStyle=orthogonalEdgeStyle;rounded=0;orthogonalLoop=1;jettySize=auto;html=1;entryX=0.5;entryY=0;entryDx=0;entryDy=0;" edge="1" parent="1" source="qxPoB2lkhQRLCmLDXCdd-96" target="qxPoB2lkhQRLCmLDXCdd-97">
          <mxGeometry relative="1" as="geometry" />
        </mxCell>
        <mxCell id="qxPoB2lkhQRLCmLDXCdd-108" value="N" style="edgeLabel;html=1;align=center;verticalAlign=middle;resizable=0;points=[];" vertex="1" connectable="0" parent="qxPoB2lkhQRLCmLDXCdd-100">
          <mxGeometry x="0.1141" y="4" relative="1" as="geometry">
            <mxPoint y="-4" as="offset" />
          </mxGeometry>
        </mxCell>
        <mxCell id="qxPoB2lkhQRLCmLDXCdd-101" style="edgeStyle=orthogonalEdgeStyle;rounded=0;orthogonalLoop=1;jettySize=auto;html=1;entryX=0.5;entryY=0;entryDx=0;entryDy=0;" edge="1" parent="1" source="qxPoB2lkhQRLCmLDXCdd-96" target="qxPoB2lkhQRLCmLDXCdd-98">
          <mxGeometry relative="1" as="geometry" />
        </mxCell>
        <mxCell id="qxPoB2lkhQRLCmLDXCdd-109" value="Y" style="edgeLabel;html=1;align=center;verticalAlign=middle;resizable=0;points=[];" vertex="1" connectable="0" parent="qxPoB2lkhQRLCmLDXCdd-101">
          <mxGeometry x="-0.1186" y="-2" relative="1" as="geometry">
            <mxPoint y="-2" as="offset" />
          </mxGeometry>
        </mxCell>
        <mxCell id="qxPoB2lkhQRLCmLDXCdd-96" value="是否发布" style="strokeWidth=2;html=1;shape=mxgraph.flowchart.decision;whiteSpace=wrap;" vertex="1" parent="1">
          <mxGeometry x="273.25" y="580" width="110.5" height="40" as="geometry" />
        </mxCell>
        <mxCell id="qxPoB2lkhQRLCmLDXCdd-97" value="保存为草稿" style="rounded=0;whiteSpace=wrap;html=1;" vertex="1" parent="1">
          <mxGeometry x="123" y="630" width="137" height="30" as="geometry" />
        </mxCell>
        <mxCell id="qxPoB2lkhQRLCmLDXCdd-98" value="发布博客" style="rounded=0;whiteSpace=wrap;html=1;" vertex="1" parent="1">
          <mxGeometry x="397" y="630" width="137" height="30" as="geometry" />
        </mxCell>
        <mxCell id="qxPoB2lkhQRLCmLDXCdd-99" value="结束" style="strokeWidth=2;html=1;shape=mxgraph.flowchart.terminator;whiteSpace=wrap;" vertex="1" parent="1">
          <mxGeometry x="291" y="680" width="75" height="40" as="geometry" />
        </mxCell>
        <mxCell id="qxPoB2lkhQRLCmLDXCdd-102" style="edgeStyle=orthogonalEdgeStyle;rounded=0;orthogonalLoop=1;jettySize=auto;html=1;entryX=1;entryY=0.5;entryDx=0;entryDy=0;entryPerimeter=0;" edge="1" parent="1" source="qxPoB2lkhQRLCmLDXCdd-98" target="qxPoB2lkhQRLCmLDXCdd-99">
          <mxGeometry relative="1" as="geometry">
            <Array as="points">
              <mxPoint x="470" y="700" />
            </Array>
          </mxGeometry>
        </mxCell>
        <mxCell id="qxPoB2lkhQRLCmLDXCdd-103" style="edgeStyle=orthogonalEdgeStyle;rounded=0;orthogonalLoop=1;jettySize=auto;html=1;entryX=0;entryY=0.5;entryDx=0;entryDy=0;entryPerimeter=0;" edge="1" parent="1" source="qxPoB2lkhQRLCmLDXCdd-97" target="qxPoB2lkhQRLCmLDXCdd-99">
          <mxGeometry relative="1" as="geometry">
            <Array as="points">
              <mxPoint x="190" y="700" />
            </Array>
          </mxGeometry>
        </mxCell>
        <mxCell id="qxPoB2lkhQRLCmLDXCdd-107" style="edgeStyle=orthogonalEdgeStyle;rounded=0;orthogonalLoop=1;jettySize=auto;html=1;entryX=0.5;entryY=0;entryDx=0;entryDy=0;entryPerimeter=0;" edge="1" parent="1" source="qxPoB2lkhQRLCmLDXCdd-94" target="qxPoB2lkhQRLCmLDXCdd-96">
          <mxGeometry relative="1" as="geometry" />
        </mxCell>
      </root>
    </mxGraphModel>
  </diagram>
</mxfile>
